<?xml version="1.0" encoding="UTF-8" standalone="no"?>
<svg
   xmlns:dc="http://purl.org/dc/elements/1.1/"
   xmlns:cc="http://creativecommons.org/ns#"
   xmlns:rdf="http://www.w3.org/1999/02/22-rdf-syntax-ns#"
   xmlns:svg="http://www.w3.org/2000/svg"
   xmlns="http://www.w3.org/2000/svg"
   xmlns:sodipodi="http://sodipodi.sourceforge.net/DTD/sodipodi-0.dtd"
   xmlns:inkscape="http://www.inkscape.org/namespaces/inkscape"
   version="1.1"
   id="svg2"
   xml:space="preserve"
   width="1266.6677"
   height="139.246"
   viewBox="0 0 1266.6677 139.246"
   sodipodi:docname="logo.svg"
   inkscape:version="0.91 r13725"><metadata
     id="metadata8"><rdf:RDF><cc:Work
         rdf:about=""><dc:format>image/svg+xml</dc:format><dc:type
           rdf:resource="http://purl.org/dc/dcmitype/StillImage" /><dc:title></dc:title></cc:Work></rdf:RDF></metadata><defs
     id="defs6"><clipPath
       clipPathUnits="userSpaceOnUse"
       id="clipPath30"><path
         d="M 0,238 1080,238 1080,0 0,0 Z"
         id="path28"
         inkscape:connector-curvature="0" /></clipPath></defs><sodipodi:namedview
     pagecolor="#ffffff"
     bordercolor="#666666"
     borderopacity="1"
     objecttolerance="10"
     gridtolerance="10"
     guidetolerance="10"
     inkscape:pageopacity="0"
     inkscape:pageshadow="2"
     inkscape:window-width="1414"
     inkscape:window-height="709"
     id="namedview4"
     showgrid="false"
     fit-margin-top="0"
     fit-margin-left="0"
     fit-margin-right="0"
     fit-margin-bottom="0"
     inkscape:zoom="0.26805556"
     inkscape:cx="633.334"
     inkscape:cy="69.62306"
     inkscape:window-x="240"
     inkscape:window-y="257"
     inkscape:window-maximized="0"
     inkscape:current-layer="g10" /><g
     id="g10"
     inkscape:groupmode="layer"
     inkscape:label="2D-logo-maticart (1)"
     transform="matrix(1.3333333,0,0,-1.3333333,-86.665998,228.28959)"><g
       id="g12"
       transform="translate(309.519,106.8965)"><path
         d="M 0,0 -10.623,34.314 -21.245,0 Z m -59.682,-40.113 35.152,104.058 28.513,0 35.153,-104.058 -26.906,0 -6.5,21.244 -32.706,0 -6.499,-21.244 z"
         style="fill:#782183;fill-opacity:1;fill-rule:nonzero;stroke:none"
         id="path14"
         inkscape:connector-curvature="0" /></g><g
       id="g16"
       transform="translate(390.4351,66.7832)"><path
         d="m 0,0 0,84.211 -30.75,0 0,19.847 87.637,0 0,-19.847 -30.75,0 0,-84.211 z"
         style="fill:#782183;fill-opacity:1;fill-rule:nonzero;stroke:none"
         id="path18"
         inkscape:connector-curvature="0" /></g><g
       id="g20"
       transform="translate(521.3872,66.7832)"><path
         d="m 0,0 -56.047,0 0,18.17 14.955,0 0,67.718 -14.955,0 0,18.17 56.047,0 0,-18.17 -14.956,0 0,-67.718 14.956,0 z"
         style="fill:#782183;fill-opacity:1;fill-rule:nonzero;stroke:none"
         id="path22"
         inkscape:connector-curvature="0" /></g><g
       id="g24"><g
         id="g26"
         clip-path="url(#clipPath30)"><g
           id="g32"
           transform="translate(593.3027,66.7832)"><path
             d="m 0,0 c -15.078,0 -27.048,4.557 -35.913,13.67 -8.867,9.114 -13.3,21.929 -13.3,38.446 0,15.931 4.443,28.634 13.333,38.108 8.887,9.473 20.87,14.21 35.947,14.21 4.005,0 7.606,-0.226 10.802,-0.675 3.195,-0.45 6.255,-1.08 9.181,-1.89 2.296,-0.675 4.793,-1.598 7.493,-2.768 2.7,-1.171 4.883,-2.184 6.548,-3.038 l 0,-23.965 -2.565,0 c -1.214,1.08 -2.746,2.373 -4.59,3.881 -1.846,1.508 -3.939,2.981 -6.278,4.422 -2.342,1.44 -4.918,2.666 -7.73,3.68 -2.813,1.012 -5.75,1.518 -8.81,1.518 -3.644,0 -6.987,-0.574 -10.024,-1.721 -3.038,-1.148 -5.931,-3.139 -8.676,-5.974 -2.521,-2.566 -4.58,-6.031 -6.177,-10.397 -1.598,-4.365 -2.396,-9.518 -2.396,-15.459 0,-6.256 0.833,-11.51 2.498,-15.763 1.665,-4.253 3.847,-7.685 6.548,-10.295 2.61,-2.52 5.524,-4.344 8.743,-5.469 3.217,-1.125 6.424,-1.687 9.619,-1.687 3.33,0 6.503,0.551 9.518,1.654 3.015,1.103 5.558,2.329 7.628,3.679 2.251,1.395 4.23,2.812 5.942,4.254 1.71,1.439 3.195,2.723 4.456,3.848 l 2.294,0 0,-23.628 C 32.245,7.785 30.108,6.807 27.678,5.704 25.248,4.601 22.751,3.667 20.185,2.903 17.034,1.957 14.086,1.238 11.342,0.742 8.596,0.248 4.815,0 0,0"
             style="fill:#782183;fill-opacity:1;fill-rule:nonzero;stroke:none"
             id="path34"
             inkscape:connector-curvature="0" /></g><path
           d="m 681.122,66.783 -24.738,0 0,27.465 24.738,0 z"
           style="fill:#782183;fill-opacity:1;fill-rule:nonzero;stroke:none"
           id="path36"
           inkscape:connector-curvature="0" /><g
           id="g38"
           transform="translate(761.8281,106.8965)"><path
             d="M 0,0 -10.622,34.314 -21.245,0 Z m -59.682,-40.113 35.153,104.058 28.512,0 35.153,-104.058 -26.907,0 -6.499,21.244 -32.706,0 -6.499,-21.244 z"
             style="fill:#782183;fill-opacity:1;fill-rule:nonzero;stroke:none"
             id="path40"
             inkscape:connector-curvature="0" /></g><g
           id="g42"
           transform="translate(876.918,138.9736)"><path
             d="m 0,0 c 0,2.609 -0.502,4.857 -1.504,6.744 -1.001,1.887 -2.667,3.343 -4.996,4.368 -1.632,0.699 -3.448,1.141 -5.451,1.327 -2.004,0.187 -4.497,0.281 -7.478,0.281 l -8.735,0 0,-28.025 7.477,0 c 3.634,0 6.72,0.221 9.26,0.664 2.539,0.443 4.694,1.386 6.464,2.831 1.678,1.304 2.924,2.865 3.739,4.682 C -0.409,-5.311 0,-2.935 0,0 m 42.07,-72.19 -31.867,0 -29.003,38.156 -9.364,0 0,-38.156 -25.997,0 0,104.058 41.861,0 c 5.776,0 10.808,-0.362 15.095,-1.083 4.286,-0.723 8.246,-2.226 11.88,-4.508 3.727,-2.376 6.685,-5.393 8.876,-9.05 2.189,-3.658 3.285,-8.306 3.285,-13.942 0,-7.967 -1.795,-14.431 -5.381,-19.393 -3.589,-4.962 -8.387,-8.911 -14.397,-11.846 z"
             style="fill:#782183;fill-opacity:1;fill-rule:nonzero;stroke:none"
             id="path44"
             inkscape:connector-curvature="0" /></g><g
           id="g46"
           transform="translate(958.1133,66.7832)"><path
             d="m 0,0 0,84.211 -30.749,0 0,19.847 87.636,0 0,-19.847 -30.75,0 0,-84.211 z"
             style="fill:#782183;fill-opacity:1;fill-rule:nonzero;stroke:none"
             id="path48"
             inkscape:connector-curvature="0" /></g><g
           id="g50"
           transform="translate(240.9165,170.6157)"><path
             d="m 0,0 -21.951,-21.951 0,-81.882 -23.623,0 0,60.753 -30.246,-30.246 0,-30.507 -24.286,0 0,30.507 -30.236,30.246 0,-60.753 -23.623,0 0,81.882 -21.952,21.951 36.271,0.467 51.683,-50.123 51.692,50.123 z"
             style="fill:#782183;fill-opacity:1;fill-rule:nonzero;stroke:none"
             id="path52"
             inkscape:connector-curvature="0" /></g></g></g></g></svg>
